<svg version="1.1" id="Layer_1" xmlns="http://www.w3.org/2000/svg" xmlns:xlink="http://www.w3.org/1999/xlink" x="0px" y="0px"
	 width="100%" viewBox="0 0 427 427" enable-background="new 0 0 427 427" xml:space="preserve">
<path fill="#FEFDEC" opacity="1.000000" stroke="none" 
	d="
M274.000000,428.000000 
	C182.666672,428.000000 91.833359,428.000000 1.000024,428.000000 
	C1.000016,285.666687 1.000016,143.333389 1.000008,1.000063 
	C143.333298,1.000042 285.666595,1.000042 427.999908,1.000021 
	C427.999939,143.333267 427.999939,285.666534 427.999969,427.999908 
	C376.833344,428.000000 325.666656,428.000000 274.000000,428.000000 
M302.863190,259.462402 
	C302.582214,260.206177 302.059540,260.948914 302.056213,261.693909 
	C302.000732,274.128693 301.979248,286.563995 302.066132,298.998352 
	C302.072845,299.959442 302.943481,300.914490 304.218170,301.986511 
	C305.824066,301.986511 307.429962,301.986511 308.869324,301.986511 
	C308.869324,287.456879 308.869324,273.411682 308.869324,259.153900 
	C306.941467,259.153900 305.311188,259.153900 302.863190,259.462402 
M130.783295,302.017181 
	C133.428604,302.490051 134.992767,301.537628 136.156097,298.955048 
	C138.197937,294.422241 140.692505,290.092896 143.008560,285.684174 
	C144.701004,282.462555 146.411301,279.250336 148.748871,274.833710 
	C149.680695,284.839233 150.462265,293.231323 151.255432,301.748077 
	C153.265793,301.748077 154.980133,301.748077 157.042770,301.748077 
	C155.674881,287.183228 154.336761,272.935333 152.998642,258.687439 
	C152.465607,258.554321 151.932556,258.421234 151.399521,258.288116 
	C144.177856,272.341644 136.956192,286.395203 129.080582,300.713745 
	C128.164642,299.502899 127.062454,298.390533 126.361961,297.065765 
	C120.299797,285.600952 114.322968,274.091064 108.282028,262.614960 
	C107.522995,261.173004 106.539558,259.849213 105.660095,258.470673 
	C105.250198,258.613037 104.840294,258.755432 104.430397,258.897797 
	C103.138741,273.199768 101.847076,287.501709 100.553238,301.827820 
	C102.808434,301.827820 104.437515,301.827820 106.278542,301.827820 
	C107.084846,293.205597 107.874947,284.756744 108.665047,276.307861 
	C113.022682,282.866821 116.794289,289.318146 119.827423,296.099731 
	C121.961716,300.871613 124.672478,303.339355 130.783295,302.017181 
M216.516769,302.065063 
	C224.545929,302.032959 224.903793,301.788055 227.248566,294.721008 
	C231.243271,282.681091 227.143524,269.894226 216.834381,262.239746 
	C207.186890,255.076523 193.377640,255.069366 183.207504,262.222321 
	C173.427078,269.101196 169.030350,281.980621 172.467941,293.681885 
	C174.825668,301.707336 175.553207,302.211151 185.025131,302.278046 
	C188.646378,304.201447 192.077423,306.759399 195.929138,307.913879 
	C203.542068,310.195709 209.789246,306.518066 216.516769,302.065063 
M131.359085,203.070099 
	C130.794678,201.895691 130.426300,199.864273 129.634674,199.683182 
	C123.592392,198.301025 122.691299,194.361206 122.884979,188.871048 
	C123.433853,173.313309 123.506989,157.738785 123.773468,141.813156 
	C123.032562,141.933899 121.852669,141.863251 120.932892,142.318344 
	C114.467514,145.517303 108.474525,149.712280 100.413643,147.613861 
	C96.008896,146.467239 91.160049,147.158051 86.591743,146.479675 
	C78.278534,145.245193 70.153275,141.936340 61.561707,144.916153 
	C52.879684,147.927383 46.155647,153.044754 44.131828,162.414459 
	C42.124779,171.706512 45.888355,178.975800 53.335728,184.529770 
	C53.730370,184.824081 54.071163,185.190598 54.770214,185.826675 
	C53.175316,187.117310 51.695297,188.404251 50.125572,189.570435 
	C41.351063,196.089188 41.921497,202.873840 51.685562,207.902878 
	C52.368511,208.254639 53.023354,208.660965 53.994167,209.214676 
	C50.904289,211.587738 48.150124,213.700592 45.398468,215.816696 
	C37.090630,222.205704 37.745377,234.256348 47.142540,238.944275 
	C67.178421,248.939468 89.617722,242.604919 100.198952,221.852570 
	C102.945122,216.466660 103.769112,210.768036 100.882774,205.293808 
	C104.257454,204.624313 107.632141,203.954819 111.877594,203.093536 
	C114.249741,203.153275 116.621880,203.213013 119.218719,203.986755 
	C122.203201,204.637146 125.166779,205.486908 128.186249,205.803436 
	C128.981995,205.886841 129.950470,204.322556 131.359085,203.070099 
M262.985413,173.638901 
	C260.811523,174.764038 258.649445,175.912811 256.461121,177.009155 
	C252.473709,179.006897 248.218658,180.593460 244.531189,183.039017 
	C238.459717,187.065659 237.678650,194.169800 242.168213,199.920135 
	C246.670593,205.686859 254.020599,206.863831 261.449677,202.795776 
	C264.145660,201.319489 266.599182,199.400375 268.859344,197.886871 
	C271.336548,200.162079 273.518433,202.166000 275.868011,204.843964 
	C291.036316,225.481186 311.407104,235.298508 337.005554,234.211807 
	C378.348694,232.456711 409.705261,192.328369 401.385956,151.835785 
	C393.531158,113.604225 359.391602,90.028709 320.602173,96.049515 
	C295.921783,99.880348 272.448761,120.625092 265.927582,144.055649 
	C258.820374,147.873367 251.574173,151.462540 244.691177,155.648880 
	C242.641434,156.895569 241.341553,159.692062 240.249832,162.035492 
	C239.833679,162.928818 240.584610,165.201279 241.461609,165.709244 
	C244.414719,167.419693 252.890869,162.492874 253.174164,159.163437 
	C253.762009,152.254944 257.547119,149.998108 264.096680,153.388077 
	C263.847290,159.922516 263.597931,166.456940 262.985413,173.638901 
M128.899658,182.507690 
	C132.546570,198.032455 144.640045,206.295746 161.745804,204.950958 
	C176.364563,203.801682 187.350937,193.593430 189.822418,178.862854 
	C192.218658,164.580856 185.168655,151.249817 172.010330,146.065338 
	C161.118332,141.773804 150.648438,143.058914 141.416962,150.434326 
	C131.445770,158.400711 126.835922,168.771469 128.899658,182.507690 
M207.819962,191.822220 
	C209.182327,195.211472 210.369461,198.687286 211.982422,201.952774 
	C212.766449,203.540085 214.346786,204.734085 215.566620,206.106125 
	C216.678375,204.822311 218.208237,203.715012 218.836349,202.227036 
	C224.325394,189.223816 229.754471,176.192932 234.984375,163.083679 
	C237.442902,156.921173 240.127686,151.162384 246.847031,148.522583 
	C247.435135,148.291504 247.718445,147.284683 248.571396,145.986877 
	C239.619522,145.986877 231.351273,145.986877 223.083023,145.986877 
	C223.781494,147.868744 224.598557,148.715546 225.592422,149.079407 
	C229.636398,150.559921 231.135666,153.797897 229.982605,157.423080 
	C227.172318,166.258728 223.772583,174.906891 220.139267,184.929657 
	C217.271774,177.584213 215.015381,171.728409 212.701126,165.895538 
	C209.942505,158.942673 205.808594,151.820679 216.451416,146.791611 
	C216.117126,146.469467 215.782822,146.147308 215.448517,145.825165 
	C204.667374,145.825165 193.886215,145.825165 182.047165,145.825165 
	C183.355057,147.418045 183.729904,148.333542 184.358749,148.568115 
	C189.576630,150.514465 191.710831,155.014526 193.729721,159.623154 
	C198.327927,170.119720 202.907516,180.624420 207.819962,191.822220 
M366.762939,284.140076 
	C363.752869,289.801056 360.742798,295.462036 357.508606,301.544495 
	C349.727142,286.788208 342.224121,272.559937 334.721069,258.331665 
	C334.214081,258.506042 333.707123,258.680420 333.200134,258.854767 
	C331.900635,273.153748 330.601135,287.452698 329.293701,301.838928 
	C331.496399,301.838928 333.123077,301.838928 334.998047,301.838928 
	C335.819153,293.275604 336.625122,284.870392 337.431061,276.465149 
	C342.340942,283.930878 346.524261,291.310760 350.057343,298.989807 
	C352.333405,303.936768 356.309662,301.276703 359.518494,302.001953 
	C362.167511,302.600647 363.718750,301.440857 364.933655,298.946228 
	C368.283142,292.068390 371.911621,285.325775 375.474365,278.553101 
	C375.924652,277.697113 376.641663,276.981415 377.596222,275.725647 
	C378.449310,284.933838 379.227417,293.332733 380.001556,301.688568 
	C382.088379,301.688568 383.811951,301.688568 385.783844,301.688568 
	C384.410339,287.096375 383.070892,272.866364 381.731476,258.636353 
	C381.230713,258.572784 380.729980,258.509186 380.229218,258.445618 
	C375.840118,266.782379 371.450989,275.119110 366.762939,284.140076 
M265.993469,259.177002 
	C259.076813,259.177002 252.160187,259.177002 245.298203,259.177002 
	C245.298203,273.852295 245.298203,287.890503 245.298203,301.916748 
	C247.143097,301.916748 248.629517,301.916748 250.224716,301.916748 
	C250.613846,300.505798 250.980911,299.174896 251.348053,297.843689 
	C254.690292,297.843689 257.681763,297.843689 260.673218,297.843689 
	C263.615051,297.843689 266.556885,297.843689 269.793182,297.843689 
	C270.812408,301.798279 273.498627,303.067780 277.678894,301.577271 
	C276.741150,299.490021 275.808899,297.414917 274.912567,295.419830 
	C283.109985,287.870270 285.436157,281.669861 283.198303,273.348694 
	C280.949402,264.986359 275.113983,260.714996 265.993469,259.177002 
M56.828037,270.175446 
	C52.258476,280.644806 47.688919,291.114197 43.081215,301.670959 
	C56.335579,301.670959 69.147430,301.670959 82.490707,301.670959 
	C76.012245,286.919495 69.759262,272.681458 63.506279,258.443390 
	C62.976551,258.529236 62.446823,258.615082 61.917091,258.700897 
	C60.305092,262.286560 58.693092,265.872192 56.828037,270.175446 
M124.253464,121.338509 
	C122.924484,116.503586 119.539528,114.160515 114.738747,114.168526 
	C110.570282,114.175491 107.458344,116.317184 105.953209,120.310654 
	C104.378273,124.489372 105.043350,128.800064 108.740585,130.979996 
	C111.520515,132.619080 115.813103,133.384140 118.844810,132.507202 
	C123.362045,131.200592 125.148987,126.964058 124.253464,121.338509 
z"/>
<path fill="#E18D4D" opacity="1.000000" stroke="none" 
	d="
M266.569672,143.801834 
	C272.448761,120.625092 295.921783,99.880348 320.602173,96.049515 
	C359.391602,90.028709 393.531158,113.604225 401.385956,151.835785 
	C409.705261,192.328369 378.348694,232.456711 337.005554,234.211807 
	C311.407104,235.298508 291.036316,225.481186 276.210388,204.560440 
	C278.851074,204.498062 281.158966,204.979752 283.446014,204.895523 
	C293.669739,204.519028 303.888611,204.001465 314.106598,203.483337 
	C316.008087,203.386932 317.897644,203.053925 319.792694,202.830109 
	C319.844635,202.284119 319.896606,201.738113 319.948547,201.192108 
	C318.603516,200.407257 317.343170,199.360138 315.895630,198.892593 
	C312.959900,197.944351 311.602814,196.262543 311.640442,193.062027 
	C311.761780,182.738724 311.616730,172.412109 311.762939,162.089447 
	C311.783813,160.613739 312.435333,158.668869 313.496857,157.769745 
	C317.820740,154.107269 323.030212,152.607864 328.412506,154.558655 
	C333.761078,156.497253 334.678986,161.515579 334.740967,166.532104 
	C334.845856,175.023773 334.662231,183.519745 334.826385,192.009552 
	C334.897552,195.691696 333.736053,197.994797 330.011047,199.043304 
	C328.688568,199.415573 327.647827,200.788757 326.478455,201.705017 
	C326.636871,202.076035 326.795288,202.447037 326.953705,202.818054 
	C347.315613,202.818054 367.677521,202.818054 388.039459,202.818054 
	C388.161804,202.303406 388.284149,201.788757 388.406525,201.274109 
	C386.783630,200.423157 384.886078,199.862564 383.604858,198.650467 
	C381.858215,196.998032 379.292053,194.839081 379.306671,192.914215 
	C379.426422,177.116882 380.069733,161.323624 380.532562,145.528519 
	C380.567963,144.319992 380.438080,143.106598 380.374603,141.657394 
	C379.153625,141.817612 378.469208,141.773499 377.894287,142.003342 
	C371.279114,144.647995 364.666382,147.300446 358.096039,150.053436 
	C357.304413,150.385132 356.097351,151.595856 356.233154,151.925964 
	C356.672272,152.993408 357.666595,153.825470 358.413055,154.774918 
	C360.022247,156.821701 361.610321,158.885147 362.897766,161.232391 
	C362.419189,172.292587 362.229889,183.061951 362.125031,193.832153 
	C362.117981,194.558563 362.747955,195.291168 362.965363,196.376434 
	C359.949829,199.262466 356.843781,199.903320 353.194031,198.253387 
	C349.493561,196.580551 350.307648,193.381775 350.274658,190.504120 
	C350.162018,180.681824 350.485962,170.842392 350.017548,161.039413 
	C349.445007,149.056305 340.005615,141.811569 328.427094,144.426544 
	C324.482574,145.317413 320.814941,147.572678 317.133759,149.428604 
	C315.462982,150.270950 314.067474,151.659348 311.943726,153.252716 
	C312.194458,148.943512 312.390503,145.574356 312.601166,141.954056 
	C305.172241,144.710342 298.310913,147.055359 291.630005,149.834183 
	C288.983002,150.935196 289.808624,152.645035 291.709564,154.401276 
	C293.409363,155.971680 295.679382,158.119400 295.740417,160.073486 
	C296.112640,171.996445 295.926361,183.936829 295.926361,195.862381 
	C294.211151,195.654327 292.777313,195.071350 291.604462,195.405197 
	C284.506165,197.425659 282.694702,196.168655 282.766083,188.708252 
	C282.852112,179.717377 283.091919,170.728088 283.206482,161.737350 
	C283.367249,149.123276 278.992645,144.434006 266.569672,143.801834 
M361.805725,121.360039 
	C360.669067,126.414513 362.448486,130.374130 366.965393,132.575714 
	C370.823517,134.456207 374.808746,133.910324 377.954315,130.651810 
	C380.875824,127.625374 382.187347,123.617020 379.836945,120.214706 
	C377.994385,117.547585 374.613861,115.033485 371.506134,114.367844 
	C367.093384,113.422707 363.671387,116.248581 361.805725,121.360039 
z"/>
<path fill="#050402" opacity="1.000000" stroke="none" 
	d="
M363.207031,160.941772 
	C361.610321,158.885147 360.022247,156.821701 358.413055,154.774918 
	C357.666595,153.825470 356.672272,152.993408 356.233154,151.925964 
	C356.097351,151.595856 357.304413,150.385132 358.096039,150.053436 
	C364.666382,147.300446 371.279114,144.647995 377.894287,142.003342 
	C378.469208,141.773499 379.153625,141.817612 380.374603,141.657394 
	C380.438080,143.106598 380.567963,144.319992 380.532562,145.528519 
	C380.069733,161.323624 379.426422,177.116882 379.306671,192.914215 
	C379.292053,194.839081 381.858215,196.998032 383.604858,198.650467 
	C384.886078,199.862564 386.783630,200.423157 388.406525,201.274109 
	C388.284149,201.788757 388.161804,202.303406 388.039459,202.818054 
	C367.677521,202.818054 347.315613,202.818054 326.953705,202.818054 
	C326.795288,202.447037 326.636871,202.076035 326.478455,201.705017 
	C327.647827,200.788757 328.688568,199.415573 330.011047,199.043304 
	C333.736053,197.994797 334.897552,195.691696 334.826385,192.009552 
	C334.662231,183.519745 334.845856,175.023773 334.740967,166.532104 
	C334.678986,161.515579 333.761078,156.497253 328.412506,154.558655 
	C323.030212,152.607864 317.820740,154.107269 313.496857,157.769745 
	C312.435333,158.668869 311.783813,160.613739 311.762939,162.089447 
	C311.616730,172.412109 311.761780,182.738724 311.640442,193.062027 
	C311.602814,196.262543 312.959900,197.944351 315.895630,198.892593 
	C317.343170,199.360138 318.603516,200.407257 319.948547,201.192108 
	C319.896606,201.738113 319.844635,202.284119 319.792694,202.830109 
	C317.897644,203.053925 316.008087,203.386932 314.106598,203.483337 
	C303.888611,204.001465 293.669739,204.519028 283.446014,204.895523 
	C281.158966,204.979752 278.851074,204.498062 276.126526,204.223419 
	C273.518433,202.166000 271.336548,200.162079 268.859344,197.886871 
	C266.599182,199.400375 264.145660,201.319489 261.449677,202.795776 
	C254.020599,206.863831 246.670593,205.686859 242.168213,199.920135 
	C237.678650,194.169800 238.459717,187.065659 244.531189,183.039017 
	C248.218658,180.593460 252.473709,179.006897 256.461121,177.009155 
	C258.649445,175.912811 260.811523,174.764038 263.527161,173.417191 
	C265.167694,171.993958 267.028778,170.901810 267.219849,169.570053 
	C267.756500,165.829651 267.999603,161.944641 267.565430,158.208817 
	C267.333191,156.210449 265.465881,154.402115 264.336487,152.508026 
	C257.547119,149.998108 253.762009,152.254944 253.174164,159.163437 
	C252.890869,162.492874 244.414719,167.419693 241.461609,165.709244 
	C240.584610,165.201279 239.833679,162.928818 240.249832,162.035492 
	C241.341553,159.692062 242.641434,156.895569 244.691177,155.648880 
	C251.574173,151.462540 258.820374,147.873367 266.248627,143.928741 
	C278.992645,144.434006 283.367249,149.123276 283.206482,161.737350 
	C283.091919,170.728088 282.852112,179.717377 282.766083,188.708252 
	C282.694702,196.168655 284.506165,197.425659 291.604462,195.405197 
	C292.777313,195.071350 294.211151,195.654327 295.926361,195.862381 
	C295.926361,183.936829 296.112640,171.996445 295.740417,160.073486 
	C295.679382,158.119400 293.409363,155.971680 291.709564,154.401276 
	C289.808624,152.645035 288.983002,150.935196 291.630005,149.834183 
	C298.310913,147.055359 305.172241,144.710342 312.601166,141.954056 
	C312.390503,145.574356 312.194458,148.943512 311.943726,153.252716 
	C314.067474,151.659348 315.462982,150.270950 317.133759,149.428604 
	C320.814941,147.572678 324.482574,145.317413 328.427094,144.426544 
	C340.005615,141.811569 349.445007,149.056305 350.017548,161.039413 
	C350.485962,170.842392 350.162018,180.681824 350.274658,190.504120 
	C350.307648,193.381775 349.493561,196.580551 353.194031,198.253387 
	C356.843781,199.903320 359.949829,199.262466 363.214966,196.045410 
	C363.456268,183.886475 363.331635,172.414124 363.207031,160.941772 
M255.127289,185.887573 
	C254.912537,186.691055 254.604904,187.482407 254.498215,188.299973 
	C253.859894,193.191925 255.933212,196.488464 259.842316,196.878220 
	C263.999878,197.292755 266.936401,194.247498 267.049103,189.283844 
	C267.123688,185.998886 267.063232,182.710861 267.063232,179.426727 
	C261.792206,179.510132 259.313171,180.836502 255.127289,185.887573 
z"/>
<path fill="#070706" opacity="1.000000" stroke="none" 
	d="
M100.030373,205.285629 
	C103.769112,210.768036 102.945122,216.466660 100.198952,221.852570 
	C89.617722,242.604919 67.178421,248.939468 47.142540,238.944275 
	C37.745377,234.256348 37.090630,222.205704 45.398468,215.816696 
	C48.150124,213.700592 50.904289,211.587738 53.994167,209.214676 
	C53.023354,208.660965 52.368511,208.254639 51.685562,207.902878 
	C41.921497,202.873840 41.351063,196.089188 50.125572,189.570435 
	C51.695297,188.404251 53.175316,187.117310 54.770214,185.826675 
	C54.071163,185.190598 53.730370,184.824081 53.335728,184.529770 
	C45.888355,178.975800 42.124779,171.706512 44.131828,162.414459 
	C46.155647,153.044754 52.879684,147.927383 61.561707,144.916153 
	C70.153275,141.936340 78.278534,145.245193 86.591743,146.479675 
	C91.160049,147.158051 96.008896,146.467239 100.413643,147.613861 
	C108.474525,149.712280 114.467514,145.517303 120.932892,142.318344 
	C121.852669,141.863251 123.032562,141.933899 123.773468,141.813156 
	C123.506989,157.738785 123.433853,173.313309 122.884979,188.871048 
	C122.691299,194.361206 123.592392,198.301025 129.634674,199.683182 
	C130.426300,199.864273 130.794678,201.895691 130.687469,203.265961 
	C126.341911,203.398804 122.667969,203.335785 118.994026,203.272766 
	C116.621880,203.213013 114.249741,203.153275 111.022446,203.114655 
	C106.640739,203.245758 103.114174,203.355743 99.327362,203.173843 
	C99.862091,201.675522 100.438164,200.203995 101.503174,199.324524 
	C103.115074,197.993439 105.067368,197.074554 107.075455,195.550842 
	C107.174294,183.751373 107.072708,172.381577 107.026459,160.630341 
	C106.191544,154.249390 101.750359,154.953842 97.549240,155.195419 
	C92.819473,155.467407 93.783386,159.083588 93.836395,161.869415 
	C94.132721,177.443832 79.706573,193.476639 61.072689,188.568787 
	C59.698071,188.206741 57.701424,190.206360 55.993958,191.108047 
	C56.915653,192.620758 57.587982,195.174271 58.802406,195.465240 
	C63.940872,196.696411 69.298141,196.990906 74.468124,198.119400 
	C82.655540,199.906540 90.757050,202.087280 98.917694,204.324921 
	C99.303787,204.794113 99.667084,205.039871 100.030373,205.285629 
M54.367512,230.918488 
	C55.085491,231.607849 55.747433,232.369553 56.529907,232.975662 
	C66.944366,241.042725 83.840515,236.583649 87.577545,224.798477 
	C89.575935,218.496292 88.061646,215.033508 81.693100,213.621216 
	C75.240204,212.190216 68.601547,211.577927 62.028236,210.731522 
	C61.151905,210.618683 60.055046,211.041504 59.274414,211.546921 
	C52.444294,215.969070 49.462536,223.758224 54.367512,230.918488 
M61.681564,153.269333 
	C56.640915,162.032928 56.881790,170.870621 62.187706,179.254959 
	C66.147301,185.511887 73.261909,185.344147 76.706230,179.014496 
	C80.915215,171.279648 81.470467,163.036438 77.452911,155.025101 
	C73.899780,147.939850 67.967262,147.187500 61.681564,153.269333 
z"/>
<path fill="#060606" opacity="1.000000" stroke="none" 
	d="
M128.833191,182.090576 
	C126.835922,168.771469 131.445770,158.400711 141.416962,150.434326 
	C150.648438,143.058914 161.118332,141.773804 172.010330,146.065338 
	C185.168655,151.249817 192.218658,164.580856 189.822418,178.862854 
	C187.350937,193.593430 176.364563,203.801682 161.745804,204.950958 
	C144.640045,206.295746 132.546570,198.032455 128.833191,182.090576 
M150.309052,193.078583 
	C156.986252,202.005081 167.863800,202.098633 171.104782,192.662704 
	C175.388779,180.190125 175.241364,167.457703 168.241562,155.644501 
	C165.599670,151.185913 161.580261,148.819992 156.106995,149.603516 
	C150.546631,150.399506 147.511337,154.051025 146.419952,159.036667 
	C143.912842,170.489594 143.958939,181.808395 150.309052,193.078583 
z"/>
<path fill="#DE8A49" opacity="1.000000" stroke="none" 
	d="
M215.574783,301.976746 
	C209.789246,306.518066 203.542068,310.195709 195.929138,307.913879 
	C192.077423,306.759399 188.646378,304.201447 184.735931,301.749146 
	C183.235306,299.043945 181.825470,296.952820 180.847733,294.676147 
	C177.159286,286.087555 179.148071,276.243073 185.722549,269.783722 
	C191.554077,264.054321 200.453781,262.329285 207.939697,265.477356 
	C216.117050,268.916199 221.591827,277.050446 220.641571,286.682404 
	C220.127182,291.896393 217.337860,296.885956 215.574783,301.976746 
z"/>
<path fill="#080807" opacity="1.000000" stroke="none" 
	d="
M207.657318,191.474030 
	C202.907516,180.624420 198.327927,170.119720 193.729721,159.623154 
	C191.710831,155.014526 189.576630,150.514465 184.358749,148.568115 
	C183.729904,148.333542 183.355057,147.418045 182.047165,145.825165 
	C193.886215,145.825165 204.667374,145.825165 215.448517,145.825165 
	C215.782822,146.147308 216.117126,146.469467 216.451416,146.791611 
	C205.808594,151.820679 209.942505,158.942673 212.701126,165.895538 
	C215.015381,171.728409 217.271774,177.584213 220.139267,184.929657 
	C223.772583,174.906891 227.172318,166.258728 229.982605,157.423080 
	C231.135666,153.797897 229.636398,150.559921 225.592422,149.079407 
	C224.598557,148.715546 223.781494,147.868744 223.083023,145.986877 
	C231.351273,145.986877 239.619522,145.986877 248.571396,145.986877 
	C247.718445,147.284683 247.435135,148.291504 246.847031,148.522583 
	C240.127686,151.162384 237.442902,156.921173 234.984375,163.083679 
	C229.754471,176.192932 224.325394,189.223816 218.836349,202.227036 
	C218.208237,203.715012 216.678375,204.822311 215.566620,206.106140 
	C214.346786,204.734085 212.766449,203.540085 211.982422,201.952774 
	C210.369461,198.687286 209.182327,195.211472 207.657318,191.474030 
z"/>
<path fill="#0D0D0C" opacity="1.000000" stroke="none" 
	d="
M366.912415,283.797974 
	C371.450989,275.119110 375.840118,266.782379 380.229218,258.445618 
	C380.729980,258.509186 381.230713,258.572784 381.731476,258.636353 
	C383.070892,272.866364 384.410339,287.096375 385.783844,301.688568 
	C383.811951,301.688568 382.088379,301.688568 380.001556,301.688568 
	C379.227417,293.332733 378.449310,284.933838 377.596222,275.725647 
	C376.641663,276.981415 375.924652,277.697113 375.474365,278.553101 
	C371.911621,285.325775 368.283142,292.068390 364.933655,298.946228 
	C363.718750,301.440857 362.167511,302.600647 359.518494,302.001953 
	C356.309662,301.276703 352.333405,303.936768 350.057343,298.989807 
	C346.524261,291.310760 342.340942,283.930878 337.431061,276.465149 
	C336.625122,284.870392 335.819153,293.275604 334.998047,301.838928 
	C333.123077,301.838928 331.496399,301.838928 329.293701,301.838928 
	C330.601135,287.452698 331.900635,273.153748 333.200134,258.854767 
	C333.707123,258.680420 334.214081,258.506042 334.721069,258.331665 
	C342.224121,272.559937 349.727142,286.788208 357.508606,301.544495 
	C360.742798,295.462036 363.752869,289.801056 366.912415,283.797974 
z"/>
<path fill="#211E1A" opacity="1.000000" stroke="none" 
	d="
M216.045776,302.020905 
	C217.337860,296.885956 220.127182,291.896393 220.641571,286.682404 
	C221.591827,277.050446 216.117050,268.916199 207.939697,265.477356 
	C200.453781,262.329285 191.554077,264.054321 185.722549,269.783722 
	C179.148071,276.243073 177.159286,286.087555 180.847733,294.676147 
	C181.825470,296.952820 183.235306,299.043945 184.451340,301.601868 
	C175.553207,302.211151 174.825668,301.707336 172.467941,293.681885 
	C169.030350,281.980621 173.427078,269.101196 183.207504,262.222321 
	C193.377640,255.069366 207.186890,255.076523 216.834381,262.239746 
	C227.143524,269.894226 231.243271,282.681091 227.248566,294.721008 
	C224.903793,301.788055 224.545929,302.032959 216.045776,302.020905 
z"/>
<path fill="#0F0F0E" opacity="1.000000" stroke="none" 
	d="
M266.432526,259.222351 
	C275.113983,260.714996 280.949402,264.986359 283.198303,273.348694 
	C285.436157,281.669861 283.109985,287.870270 274.912567,295.419830 
	C275.808899,297.414917 276.741150,299.490021 277.678894,301.577271 
	C273.498627,303.067780 270.812408,301.798279 269.793182,297.843689 
	C266.556885,297.843689 263.615051,297.843689 260.673218,297.843689 
	C257.681763,297.843689 254.690292,297.843689 251.348053,297.843689 
	C250.980911,299.174896 250.613846,300.505798 250.224716,301.916748 
	C248.629517,301.916748 247.143097,301.916748 245.298203,301.916748 
	C245.298203,287.890503 245.298203,273.852295 245.298203,259.177002 
	C252.160187,259.177002 259.076813,259.177002 266.432526,259.222351 
M250.749207,279.497833 
	C250.749207,283.919098 250.749207,288.340363 250.749207,292.924408 
	C255.695709,292.924408 260.012939,293.091400 264.312653,292.888031 
	C272.162628,292.516815 277.692871,287.165283 278.115509,279.807739 
	C278.580109,271.719635 273.668335,265.394836 265.593109,264.509277 
	C260.862213,263.990509 256.027893,264.414673 250.749191,264.414673 
	C250.749191,269.265869 250.749191,273.883881 250.749207,279.497833 
z"/>
<path fill="#111110" opacity="1.000000" stroke="none" 
	d="
M56.954567,269.816650 
	C58.693092,265.872192 60.305092,262.286560 61.917091,258.700897 
	C62.446823,258.615082 62.976551,258.529236 63.506279,258.443390 
	C69.759262,272.681458 76.012245,286.919495 82.490707,301.670959 
	C69.147430,301.670959 56.335579,301.670959 43.081215,301.670959 
	C47.688919,291.114197 52.258476,280.644806 56.954567,269.816650 
M72.133835,291.565460 
	C69.098526,284.279480 66.063210,276.993530 62.724880,268.980194 
	C58.479794,279.207245 54.620216,288.505524 50.489716,298.456512 
	C57.591995,298.456512 64.025696,298.471436 70.459221,298.443787 
	C71.726547,298.438324 72.993156,298.268829 74.811829,298.134125 
	C73.925224,295.930206 73.196777,294.119385 72.133835,291.565460 
z"/>
<path fill="#0F0F0E" opacity="1.000000" stroke="none" 
	d="
M129.999771,301.829956 
	C124.672478,303.339355 121.961716,300.871613 119.827423,296.099731 
	C116.794289,289.318146 113.022682,282.866821 108.665047,276.307861 
	C107.874947,284.756744 107.084846,293.205597 106.278542,301.827820 
	C104.437515,301.827820 102.808434,301.827820 100.553238,301.827820 
	C101.847076,287.501709 103.138741,273.199768 104.430397,258.897797 
	C104.840294,258.755432 105.250198,258.613037 105.660095,258.470673 
	C106.539558,259.849213 107.522995,261.173004 108.282028,262.614960 
	C114.322968,274.091064 120.299797,285.600952 126.361961,297.065765 
	C127.062454,298.390533 128.164642,299.502899 129.484161,300.924561 
	C129.925110,301.366913 129.962448,301.598419 129.999771,301.829956 
z"/>
<path fill="#0D0D0C" opacity="1.000000" stroke="none" 
	d="
M130.391541,301.923584 
	C129.962448,301.598419 129.925110,301.366913 129.811142,300.792053 
	C136.956192,286.395203 144.177856,272.341644 151.399521,258.288116 
	C151.932556,258.421234 152.465607,258.554321 152.998642,258.687439 
	C154.336761,272.935333 155.674881,287.183228 157.042770,301.748077 
	C154.980133,301.748077 153.265793,301.748077 151.255432,301.748077 
	C150.462265,293.231323 149.680695,284.839233 148.748871,274.833710 
	C146.411301,279.250336 144.701004,282.462555 143.008560,285.684174 
	C140.692505,290.092896 138.197937,294.422241 136.156097,298.955048 
	C134.992767,301.537628 133.428604,302.490051 130.391541,301.923584 
z"/>
<path fill="#080707" opacity="1.000000" stroke="none" 
	d="
M124.341629,121.711411 
	C125.148987,126.964058 123.362045,131.200592 118.844810,132.507202 
	C115.813103,133.384140 111.520515,132.619080 108.740585,130.979996 
	C105.043350,128.800064 104.378273,124.489372 105.953209,120.310654 
	C107.458344,116.317184 110.570282,114.175491 114.738747,114.168526 
	C119.539528,114.160515 122.924484,116.503586 124.341629,121.711411 
z"/>
<path fill="#161614" opacity="1.000000" stroke="none" 
	d="
M303.680908,259.153900 
	C305.311188,259.153900 306.941467,259.153900 308.869324,259.153900 
	C308.869324,273.411682 308.869324,287.456879 308.869324,301.986511 
	C307.429962,301.986511 305.824066,301.986511 303.791046,301.470215 
	C303.469574,287.020569 303.575256,273.087250 303.680908,259.153900 
z"/>
<path fill="#DA8D52" opacity="1.000000" stroke="none" 
	d="
M264.216583,152.948059 
	C265.465881,154.402115 267.333191,156.210449 267.565430,158.208817 
	C267.999603,161.944641 267.756500,165.829651 267.219849,169.570053 
	C267.028778,170.901810 265.167694,171.993958 263.708740,173.093430 
	C263.597931,166.456940 263.847290,159.922516 264.216583,152.948059 
z"/>
<path fill="#FFFFFD" opacity="1.000000" stroke="none" 
	d="
M303.272034,259.308167 
	C303.575256,273.087250 303.469574,287.020569 303.388245,301.413147 
	C302.943481,300.914490 302.072845,299.959442 302.066132,298.998352 
	C301.979248,286.563995 302.000732,274.128693 302.056213,261.693909 
	C302.059540,260.948914 302.582214,260.206177 303.272034,259.308167 
z"/>
<path fill="#FAF9E9" opacity="1.000000" stroke="none" 
	d="
M119.106369,203.629761 
	C122.667969,203.335785 126.341911,203.398804 130.427734,203.488342 
	C129.950470,204.322556 128.981995,205.886841 128.186249,205.803436 
	C125.166779,205.486908 122.203201,204.637146 119.106369,203.629761 
z"/>
<path fill="#FAF9E9" opacity="1.000000" stroke="none" 
	d="
M99.587616,203.465714 
	C103.114174,203.355743 106.640739,203.245758 110.587059,203.210556 
	C107.632141,203.954819 104.257454,204.624313 100.456573,205.289719 
	C99.667084,205.039871 99.303787,204.794113 99.092453,204.167709 
	C99.244423,203.787048 99.587616,203.465714 99.587616,203.465714 
z"/>
<path fill="#070502" opacity="1.000000" stroke="none" 
	d="
M361.891296,120.993576 
	C363.671387,116.248581 367.093384,113.422707 371.506134,114.367844 
	C374.613861,115.033485 377.994385,117.547585 379.836945,120.214706 
	C382.187347,123.617020 380.875824,127.625374 377.954315,130.651810 
	C374.808746,133.910324 370.823517,134.456207 366.965393,132.575714 
	C362.448486,130.374130 360.669067,126.414513 361.891296,120.993576 
z"/>
<path fill="#C27A42" opacity="1.000000" stroke="none" 
	d="
M362.897766,161.232391 
	C363.331635,172.414124 363.456268,183.886475 363.331238,195.689850 
	C362.747955,195.291168 362.117981,194.558563 362.125031,193.832153 
	C362.229889,183.061951 362.419189,172.292587 362.897766,161.232391 
z"/>
<path fill="#F2ECDA" opacity="1.000000" stroke="none" 
	d="
M255.316010,185.561920 
	C259.313171,180.836502 261.792206,179.510132 267.063232,179.426727 
	C267.063232,182.710861 267.123688,185.998886 267.049103,189.283844 
	C266.936401,194.247498 263.999878,197.292755 259.842316,196.878220 
	C255.933212,196.488464 253.859894,193.191925 254.498215,188.299973 
	C254.604904,187.482407 254.912537,186.691055 255.316010,185.561920 
z"/>
<path fill="#FAF9E9" opacity="1.000000" stroke="none" 
	d="
M99.069664,203.944260 
	C90.757050,202.087280 82.655540,199.906540 74.468124,198.119400 
	C69.298141,196.990906 63.940872,196.696411 58.802406,195.465240 
	C57.587982,195.174271 56.915653,192.620758 55.993958,191.108047 
	C57.701424,190.206360 59.698071,188.206741 61.072689,188.568787 
	C79.706573,193.476639 94.132721,177.443832 93.836395,161.869415 
	C93.783386,159.083588 92.819473,155.467407 97.549240,155.195419 
	C101.750359,154.953842 106.191544,154.249390 106.739159,160.931061 
	C106.263641,170.343033 106.052940,179.072800 106.043854,187.802765 
	C106.041023,190.528397 106.582642,193.254593 106.875031,195.980530 
	C105.067368,197.074554 103.115074,197.993439 101.503174,199.324524 
	C100.438164,200.203995 99.862091,201.675522 99.327362,203.173843 
	C99.587616,203.465714 99.244423,203.787048 99.069664,203.944260 
z"/>
<path fill="#FAFAE9" opacity="1.000000" stroke="none" 
	d="
M54.145958,230.605621 
	C49.462536,223.758224 52.444294,215.969070 59.274414,211.546921 
	C60.055046,211.041504 61.151905,210.618683 62.028236,210.731522 
	C68.601547,211.577927 75.240204,212.190216 81.693100,213.621216 
	C88.061646,215.033508 89.575935,218.496292 87.577545,224.798477 
	C83.840515,236.583649 66.944366,241.042725 56.529907,232.975662 
	C55.747433,232.369553 55.085491,231.607849 54.145958,230.605621 
z"/>
<path fill="#F8F7E7" opacity="1.000000" stroke="none" 
	d="
M61.905128,152.965027 
	C67.967262,147.187500 73.899780,147.939850 77.452911,155.025101 
	C81.470467,163.036438 80.915215,171.279648 76.706230,179.014496 
	C73.261909,185.344147 66.147301,185.511887 62.187706,179.254959 
	C56.881790,170.870621 56.640915,162.032928 61.905128,152.965027 
z"/>
<path fill="#FFFFFD" opacity="1.000000" stroke="none" 
	d="
M107.075455,195.550858 
	C106.582642,193.254593 106.041023,190.528397 106.043854,187.802765 
	C106.052940,179.072800 106.263641,170.343033 106.683823,161.312469 
	C107.072708,172.381577 107.174294,183.751373 107.075455,195.550858 
z"/>
<path fill="#FBFAE9" opacity="1.000000" stroke="none" 
	d="
M150.128723,192.753021 
	C143.958939,181.808395 143.912842,170.489594 146.419952,159.036667 
	C147.511337,154.051025 150.546631,150.399506 156.106995,149.603516 
	C161.580261,148.819992 165.599670,151.185913 168.241562,155.644501 
	C175.241364,167.457703 175.388779,180.190125 171.104782,192.662704 
	C167.863800,202.098633 156.986252,202.005081 150.128723,192.753021 
z"/>
<path fill="#FBFAEA" opacity="1.000000" stroke="none" 
	d="
M250.749207,278.999878 
	C250.749191,273.883881 250.749191,269.265869 250.749191,264.414673 
	C256.027893,264.414673 260.862213,263.990509 265.593109,264.509277 
	C273.668335,265.394836 278.580109,271.719635 278.115509,279.807739 
	C277.692871,287.165283 272.162628,292.516815 264.312653,292.888031 
	C260.012939,293.091400 255.695709,292.924408 250.749207,292.924408 
	C250.749207,288.340363 250.749207,283.919098 250.749207,278.999878 
z"/>
<path fill="#F8F8E8" opacity="1.000000" stroke="none" 
	d="
M72.301079,291.937012 
	C73.196777,294.119385 73.925224,295.930206 74.811829,298.134125 
	C72.993156,298.268829 71.726547,298.438324 70.459221,298.443787 
	C64.025696,298.471436 57.591995,298.456512 50.489716,298.456512 
	C54.620216,288.505524 58.479794,279.207245 62.724880,268.980194 
	C66.063210,276.993530 69.098526,284.279480 72.301079,291.937012 
z"/>
</svg>