<svg version="1.1" id="Layer_1" xmlns="http://www.w3.org/2000/svg" xmlns:xlink="http://www.w3.org/1999/xlink" x="0px" y="0px"
	 width="100%" viewBox="0 0 2000 2000" enable-background="new 0 0 2000 2000" xml:space="preserve">
<path fill="#FFFEEC" opacity="1.000000" stroke="none" 
	d="
M1324.000000,2001.000000 
	C882.666687,2001.000000 441.833344,2001.000000 1.000000,2001.000000 
	C1.000000,1334.333374 1.000000,667.666687 1.000000,1.000000 
	C667.666687,1.000000 1334.333374,1.000000 2001.000000,1.000000 
	C2001.000000,667.666687 2001.000000,1334.333374 2001.000000,2001.000000 
	C1775.500000,2001.000000 1550.000000,2001.000000 1324.000000,2001.000000 
M389.790955,1235.796997 
	C380.903992,1242.526245 372.052643,1249.303345 363.122040,1255.974243 
	C348.296997,1267.048218 336.802094,1280.388916 336.297729,1299.900146 
	C335.793610,1319.402466 340.369720,1337.860474 350.904694,1354.523560 
	C366.398346,1379.029785 389.344513,1394.103516 415.481262,1405.010010 
	C421.956818,1407.712158 428.591522,1410.032959 435.342560,1412.601074 
	C434.826294,1413.243652 434.588409,1413.692261 434.222137,1413.973999 
	C403.870270,1437.306519 373.628662,1460.784912 343.104858,1483.890503 
	C323.036591,1499.081543 307.882965,1517.482300 303.777740,1542.961792 
	C301.614746,1556.386719 300.158508,1570.033936 299.791931,1583.618652 
	C298.879883,1617.416992 310.584351,1646.489014 334.704498,1670.346558 
	C358.338013,1693.722900 387.275726,1707.942505 418.484039,1717.890747 
	C457.312164,1730.268188 497.376038,1734.823853 537.957886,1736.332764 
	C565.547974,1737.358765 592.974548,1736.628906 619.955872,1730.616699 
	C679.330688,1717.386230 731.146301,1689.223022 776.918396,1649.577026 
	C786.061890,1641.657349 794.637024,1633.081421 803.992126,1625.421265 
	C808.282410,1626.740967 812.561340,1628.098999 816.864685,1629.374512 
	C865.089966,1643.668945 914.352600,1652.408203 964.556458,1654.596313 
	C991.312439,1655.762451 1018.209961,1655.150513 1044.986694,1654.008301 
	C1080.796875,1652.480835 1116.098267,1646.627197 1150.988281,1638.389648 
	C1216.435181,1622.937866 1278.049561,1598.094604 1335.832642,1563.624512 
	C1407.072021,1521.127197 1467.988647,1467.010864 1518.786987,1401.536621 
	C1550.977051,1360.046753 1577.632935,1315.191772 1599.031006,1267.193604 
	C1632.699707,1191.671143 1651.150513,1112.540649 1654.677246,1030.042480 
	C1656.651123,983.868896 1653.947266,937.878845 1646.191162,892.192993 
	C1635.586304,829.727173 1616.514282,770.031372 1588.512451,713.259460 
	C1548.489258,632.115112 1494.092896,562.076782 1425.126953,503.390503 
	C1358.713379,446.876190 1284.024170,405.329437 1201.082153,378.420227 
	C1156.895386,364.084564 1111.672852,354.829071 1065.526367,350.278290 
	C1036.024902,347.368927 1006.376709,345.562134 976.731750,347.828857 
	C949.869202,349.882812 922.866333,351.432343 896.281311,355.519562 
	C832.896362,365.264465 772.314331,384.574188 714.668091,412.820557 
	C630.735535,453.947021 558.834229,510.452545 498.777191,582.038879 
	C455.081421,634.123108 420.565765,691.755920 394.818604,754.652649 
	C377.040955,798.080994 364.142578,842.945740 356.323090,889.195251 
	C353.472687,906.054321 352.012482,923.148499 349.784973,940.822449 
	C349.370972,941.906067 348.967560,942.993958 348.541504,944.072754 
	C336.408630,974.795715 332.657471,1006.604614 335.830536,1039.398682 
	C338.065308,1062.495483 345.027985,1084.128418 354.992950,1105.735474 
	C359.752228,1135.796143 366.477783,1165.413086 375.737671,1194.403931 
	C380.123810,1208.135864 385.292999,1221.617920 389.790955,1235.796997 
z"/>
<path fill="#E38E4D" opacity="1.000000" stroke="none" 
	d="
M349.918030,940.135376 
	C352.012482,923.148499 353.472687,906.054321 356.323090,889.195251 
	C364.142578,842.945740 377.040955,798.080994 394.818604,754.652649 
	C420.565765,691.755920 455.081421,634.123108 498.777191,582.038879 
	C558.834229,510.452545 630.735535,453.947021 714.668091,412.820557 
	C772.314331,384.574188 832.896362,365.264465 896.281311,355.519562 
	C922.866333,351.432343 949.869202,349.882812 976.731750,347.828857 
	C1006.376709,345.562134 1036.024902,347.368927 1065.526367,350.278290 
	C1111.672852,354.829071 1156.895386,364.084564 1201.082153,378.420227 
	C1284.024170,405.329437 1358.713379,446.876190 1425.126953,503.390503 
	C1494.092896,562.076782 1548.489258,632.115112 1588.512451,713.259460 
	C1616.514282,770.031372 1635.586304,829.727173 1646.191162,892.192993 
	C1653.947266,937.878845 1656.651123,983.868896 1654.677246,1030.042480 
	C1651.150513,1112.540649 1632.699707,1191.671143 1599.031006,1267.193604 
	C1577.632935,1315.191772 1550.977051,1360.046753 1518.786987,1401.536621 
	C1467.988647,1467.010864 1407.072021,1521.127197 1335.832642,1563.624512 
	C1278.049561,1598.094604 1216.435181,1622.937866 1150.988281,1638.389648 
	C1116.098267,1646.627197 1080.796875,1652.480835 1044.986694,1654.008301 
	C1018.209961,1655.150513 991.312439,1655.762451 964.556458,1654.596313 
	C914.352600,1652.408203 865.089966,1643.668945 816.864685,1629.374512 
	C812.561340,1628.098999 808.282410,1626.740967 803.885498,1624.785400 
	C820.848328,1606.050781 836.250854,1586.668823 849.535461,1565.592896 
	C873.673767,1527.297729 888.381836,1486.206299 886.968384,1440.330444 
	C886.328735,1419.567139 879.689087,1400.860107 866.529907,1384.650024 
	C850.728394,1365.184937 829.749512,1353.144043 806.957642,1344.004883 
	C765.497314,1327.380127 721.856506,1320.025635 677.788452,1315.223877 
	C635.257263,1310.589600 592.585327,1307.260986 550.022339,1302.899292 
	C527.853516,1300.627686 505.604034,1297.950928 484.618286,1289.916138 
	C475.557861,1286.447266 466.511444,1282.101074 458.675293,1276.462402 
	C445.320740,1266.852905 443.788300,1253.873169 452.933014,1240.226196 
	C459.733307,1230.077637 468.873566,1222.371338 479.146240,1216.007446 
	C480.778748,1214.996094 483.578735,1214.667603 485.377411,1215.311890 
	C503.307037,1221.734253 521.633057,1226.230835 540.591614,1228.387451 
	C577.044128,1232.534302 612.582642,1228.633667 646.406799,1214.552246 
	C712.945129,1186.851440 758.648254,1137.963257 786.945190,1072.360229 
	C799.839661,1042.465942 804.657959,1010.832581 805.030945,978.373413 
	C805.216370,962.238281 806.015991,946.095886 807.056396,929.990295 
	C807.675537,920.406311 813.119385,913.982300 822.480652,911.337769 
	C826.306641,910.256958 830.256775,909.136597 834.186890,908.985840 
	C851.486145,908.322083 868.797058,907.784790 886.107056,907.661438 
	C894.136047,907.604187 900.343994,904.737610 904.923157,898.337646 
	C907.726135,894.420044 910.511597,890.437561 912.788696,886.206421 
	C918.543518,875.513245 920.854614,864.142883 919.035156,851.969055 
	C917.254089,840.052185 910.315063,833.757202 898.339905,834.287231 
	C888.195496,834.736206 878.062866,835.583557 867.945312,836.482849 
	C838.482910,839.101624 808.840027,840.129395 779.700928,835.400330 
	C743.949158,829.598022 708.475220,821.860291 673.129272,813.863098 
	C651.228333,808.907898 629.663574,802.548828 607.119141,800.992798 
	C562.365112,797.903870 519.163452,804.449036 477.707611,821.831360 
	C436.676514,839.035645 401.409729,864.082581 374.666992,899.901978 
	C365.285278,912.467896 358.104095,926.676758 349.918030,940.135376 
z"/>
<path fill="#010000" opacity="1.000000" stroke="none" 
	d="
M349.851501,940.478882 
	C358.104095,926.676758 365.285278,912.467896 374.666992,899.901978 
	C401.409729,864.082581 436.676514,839.035645 477.707611,821.831360 
	C519.163452,804.449036 562.365112,797.903870 607.119141,800.992798 
	C629.663574,802.548828 651.228333,808.907898 673.129272,813.863098 
	C708.475220,821.860291 743.949158,829.598022 779.700928,835.400330 
	C808.840027,840.129395 838.482910,839.101624 867.945312,836.482849 
	C878.062866,835.583557 888.195496,834.736206 898.339905,834.287231 
	C910.315063,833.757202 917.254089,840.052185 919.035156,851.969055 
	C920.854614,864.142883 918.543518,875.513245 912.788696,886.206421 
	C910.511597,890.437561 907.726135,894.420044 904.923157,898.337646 
	C900.343994,904.737610 894.136047,907.604187 886.107056,907.661438 
	C868.797058,907.784790 851.486145,908.322083 834.186890,908.985840 
	C830.256775,909.136597 826.306641,910.256958 822.480652,911.337769 
	C813.119385,913.982300 807.675537,920.406311 807.056396,929.990295 
	C806.015991,946.095886 805.216370,962.238281 805.030945,978.373413 
	C804.657959,1010.832581 799.839661,1042.465942 786.945190,1072.360229 
	C758.648254,1137.963257 712.945129,1186.851440 646.406799,1214.552246 
	C612.582642,1228.633667 577.044128,1232.534302 540.591614,1228.387451 
	C521.633057,1226.230835 503.307037,1221.734253 485.377411,1215.311890 
	C483.578735,1214.667603 480.778748,1214.996094 479.146240,1216.007446 
	C468.873566,1222.371338 459.733307,1230.077637 452.933014,1240.226196 
	C443.788300,1253.873169 445.320740,1266.852905 458.675293,1276.462402 
	C466.511444,1282.101074 475.557861,1286.447266 484.618286,1289.916138 
	C505.604034,1297.950928 527.853516,1300.627686 550.022339,1302.899292 
	C592.585327,1307.260986 635.257263,1310.589600 677.788452,1315.223877 
	C721.856506,1320.025635 765.497314,1327.380127 806.957642,1344.004883 
	C829.749512,1353.144043 850.728394,1365.184937 866.529907,1384.650024 
	C879.689087,1400.860107 886.328735,1419.567139 886.968384,1440.330444 
	C888.381836,1486.206299 873.673767,1527.297729 849.535461,1565.592896 
	C836.250854,1586.668823 820.848328,1606.050781 803.626526,1624.478760 
	C794.637024,1633.081421 786.061890,1641.657349 776.918396,1649.577026 
	C731.146301,1689.223022 679.330688,1717.386230 619.955872,1730.616699 
	C592.974548,1736.628906 565.547974,1737.358765 537.957886,1736.332764 
	C497.376038,1734.823853 457.312164,1730.268188 418.484039,1717.890747 
	C387.275726,1707.942505 358.338013,1693.722900 334.704498,1670.346558 
	C310.584351,1646.489014 298.879883,1617.416992 299.791931,1583.618652 
	C300.158508,1570.033936 301.614746,1556.386719 303.777740,1542.961792 
	C307.882965,1517.482300 323.036591,1499.081543 343.104858,1483.890503 
	C373.628662,1460.784912 403.870270,1437.306519 434.222137,1413.973999 
	C434.588409,1413.692261 434.826294,1413.243652 435.342560,1412.601074 
	C428.591522,1410.032959 421.956818,1407.712158 415.481262,1405.010010 
	C389.344513,1394.103516 366.398346,1379.029785 350.904694,1354.523560 
	C340.369720,1337.860474 335.793610,1319.402466 336.297729,1299.900146 
	C336.802094,1280.388916 348.296997,1267.048218 363.122040,1255.974243 
	C372.052643,1249.303345 380.903992,1242.526245 390.287994,1235.413330 
	C408.110718,1222.042603 426.255157,1210.030640 441.128113,1193.602539 
	C421.424377,1181.457764 404.179596,1167.419312 388.807861,1151.085449 
	C375.639130,1137.092407 364.570312,1121.571899 355.102936,1104.881104 
	C345.027985,1084.128418 338.065308,1062.495483 335.830536,1039.398682 
	C332.657471,1006.604614 336.408630,974.795715 348.541504,944.072754 
	C348.967560,942.993958 349.370972,941.906067 349.851501,940.478882 
M505.256622,1428.883179 
	C499.492920,1426.972534 494.462219,1427.787598 489.547089,1431.765381 
	C482.963318,1437.093384 475.717621,1441.597168 469.055511,1446.835571 
	C438.785492,1470.636597 415.976593,1499.043091 412.421387,1539.274048 
	C410.007080,1566.594238 415.027771,1592.043091 431.820190,1614.245728 
	C455.772034,1645.914185 488.649109,1663.108643 526.813843,1670.985840 
	C552.300049,1676.246216 578.114075,1676.119873 603.912781,1673.713501 
	C623.840088,1671.854614 643.430481,1668.229004 662.103516,1660.693359 
	C692.695007,1648.347778 714.542786,1626.196777 731.949951,1598.274902 
	C732.804382,1596.663696 733.641846,1595.043213 734.515686,1593.442749 
	C748.168518,1568.435913 755.966919,1541.914307 754.948608,1513.198853 
	C754.555481,1502.111450 751.166504,1491.970947 744.090149,1483.234131 
	C734.478577,1471.367065 721.219788,1465.149536 707.387390,1460.116211 
	C676.813660,1448.991211 644.818054,1444.606934 612.705383,1441.061279 
	C592.519836,1438.832520 572.258240,1437.292603 552.071228,1435.075806 
	C536.700134,1433.387939 521.392578,1431.121948 505.256622,1428.883179 
M542.359924,1167.199707 
	C569.616760,1181.267456 595.875732,1179.927979 620.637512,1161.495361 
	C636.552002,1149.648682 646.632874,1133.157349 654.931396,1115.539307 
	C665.462891,1093.180542 670.925964,1069.416626 673.587585,1044.966675 
	C677.123596,1012.483887 677.303467,980.089111 668.873779,948.233337 
	C660.632996,917.091370 646.917053,889.123535 621.497803,867.913086 
	C594.687256,845.541626 556.453735,843.729675 528.672546,864.756958 
	C504.098816,883.356628 489.225586,908.882874 481.176208,938.041077 
	C465.507935,994.798279 469.196960,1050.855713 491.341003,1105.305542 
	C501.672882,1130.710327 517.531067,1152.390625 542.359924,1167.199707 
z"/>
<path fill="#E28E4D" opacity="1.000000" stroke="none" 
	d="
M355.047943,1105.308350 
	C364.570312,1121.571899 375.639130,1137.092407 388.807861,1151.085449 
	C404.179596,1167.419312 421.424377,1181.457764 441.128113,1193.602539 
	C426.255157,1210.030640 408.110718,1222.042603 390.446228,1235.121338 
	C385.292999,1221.617920 380.123810,1208.135864 375.737671,1194.403931 
	C366.477783,1165.413086 359.752228,1135.796143 355.047943,1105.308350 
z"/>
<path fill="#E38E4D" opacity="1.000000" stroke="none" 
	d="
M542.030762,1167.033203 
	C517.531067,1152.390625 501.672882,1130.710327 491.341003,1105.305542 
	C469.196960,1050.855713 465.507935,994.798279 481.176208,938.041077 
	C489.225586,908.882874 504.098816,883.356628 528.672546,864.756958 
	C556.453735,843.729675 594.687256,845.541626 621.497803,867.913086 
	C646.917053,889.123535 660.632996,917.091370 668.873779,948.233337 
	C677.303467,980.089111 677.123596,1012.483887 673.587585,1044.966675 
	C670.925964,1069.416626 665.462891,1093.180542 654.931396,1115.539307 
	C646.632874,1133.157349 636.552002,1149.648682 620.637512,1161.495361 
	C595.875732,1179.927979 569.616760,1181.267456 542.030762,1167.033203 
z"/>
<path fill="#FFFEEC" opacity="1.000000" stroke="none" 
	d="
M731.504822,1598.600830 
	C714.542786,1626.196777 692.695007,1648.347778 662.103516,1660.693359 
	C643.430481,1668.229004 623.840088,1671.854614 603.912781,1673.713501 
	C578.114075,1676.119873 552.300049,1676.246216 526.813843,1670.985840 
	C488.649109,1663.108643 455.772034,1645.914185 431.820190,1614.245728 
	C415.027771,1592.043091 410.007080,1566.594238 412.421387,1539.274048 
	C415.976593,1499.043091 438.785492,1470.636597 469.055511,1446.835571 
	C475.717621,1441.597168 482.963318,1437.093384 489.547089,1431.765381 
	C494.462219,1427.787598 499.492920,1426.972534 505.799927,1429.287476 
	C512.250732,1436.246094 518.027771,1442.923706 524.086121,1449.335571 
	C581.793457,1510.409302 648.577393,1558.982300 724.624023,1594.783447 
	C726.991882,1595.898193 729.214478,1597.321411 731.504822,1598.600830 
z"/>
<path fill="#E38E4D" opacity="1.000000" stroke="none" 
	d="
M731.727417,1598.437866 
	C729.214478,1597.321411 726.991882,1595.898193 724.624023,1594.783447 
	C648.577393,1558.982300 581.793457,1510.409302 524.086121,1449.335571 
	C518.027771,1442.923706 512.250732,1436.246094 506.199982,1429.402344 
	C521.392578,1431.121948 536.700134,1433.387939 552.071228,1435.075806 
	C572.258240,1437.292603 592.519836,1438.832520 612.705383,1441.061279 
	C644.818054,1444.606934 676.813660,1448.991211 707.387390,1460.116211 
	C721.219788,1465.149536 734.478577,1471.367065 744.090149,1483.234131 
	C751.166504,1491.970947 754.555481,1502.111450 754.948608,1513.198853 
	C755.966919,1541.914307 748.168518,1568.435913 734.515686,1593.442749 
	C733.641846,1595.043213 732.804382,1596.663696 731.727417,1598.437866 
z"/>
</svg>